# xmcd CD database file
#
# Track frame offsets:
#	150
#	12256
#	23494
#	35566
#	48550
#	60074
#	79544
#	93710
#	107742
#	119925
#	133493
#	149196
#	160082
#	174254
#	188240
#
# Disc length: 2674 seconds
#
# Revision: 0
# Processed by: cddbd v1.5.2PL0 Copyright (c) Steve Scherf et al.
# Submitted via: CDex 1.51
#
DISCID=cf0a700f
DTITLE=George Hamilton IV - Hymns - Country Style
DYEAR=2007
DGENRE=Country
TTITLE0=01 What A Friend
TTITLE1=02 Bringing In The Sheaves
TTITLE2=03 I'd Rather Have Jesus
TTITLE3=04 It Is No Secret
TTITLE4=05 Tell Me The Old Old Story
TTITLE5=06 How Great Thou Art
TTITLE6=07 Rock Of Ages
TTITLE7=08 Alleluia
TTITLE8=09 I Love To Tell The Story
TTITLE9=10 The Old Rugged Cross
TTITLE10=11 In The Garden
TTITLE11=12 Majesty
TTITLE12=13 Abide With Me
TTITLE13=14 Wings Of A Dove
TTITLE14=15 Blessed Assurance
EXTD=YEAR: 2007
EXTT0=
EXTT1=
EXTT2=
EXTT3=
EXTT4=
EXTT5=
EXTT6=
EXTT7=
EXTT8=
EXTT9=
EXTT10=
EXTT11=
EXTT12=
EXTT13=
EXTT14=
PLAYORDER=
